# xmcd
#
# Track frame offsets:
#	150
#	15750
#	31425
#	45975
#	60150
#	71925
#	86250
#	99000
#	113850
#	126375
#	144300
#	160050
#
# Disc length: 2351 seconds
# Revision: 0
# Processed by: cddbd v1.5.2PL0 Copyright (c) Steve Scherf et al.
# Submitted via: dBpowerAMP V12.0
#
DISCID=88092d0c
DTITLE=Scott Tackett - Looking Back
DYEAR=2015
DGENRE=Country
TTITLE0=Lookin' Back
TTITLE1=The Silver Bridge Lament
TTITLE2=Our Last Goodbye Today
TTITLE3=Gold In Caroline
TTITLE4=I'm Goin Home
TTITLE5=If Misery Loves Company
TTITLE6=Miller's Cave
TTITLE7=Old Time Traveling Preacher
TTITLE8=I Like Trains
TTITLE9=One Month Behind
TTITLE10=Angel Calling At My Door
TTITLE11=Hand Me A Glass
EXTD=
EXTT0=
EXTT1=
EXTT2=
EXTT3=
EXTT4=
EXTT5=
EXTT6=
EXTT7=
EXTT8=
EXTT9=
EXTT10=
EXTT11=
PLAYORDER=
